<?xml version="1.0" encoding="UTF-8"?>
<svg width="86px" height="96px" viewBox="0 0 86 96" version="1.1" xmlns="http://www.w3.org/2000/svg" xmlns:xlink="http://www.w3.org/1999/xlink">
    <!-- Generator: Sketch 57.1 (83088) - https://sketch.com -->
    <title>noun_Snow Globe_71334</title>
    <desc>Created with Sketch.</desc>
    <g id="Page-1" stroke="none" stroke-width="1" fill="none" fill-rule="evenodd" opacity="0.95">
        <g id="noun_Snow-Globe_71334" fill="#384CA2" fill-rule="nonzero">
            <path d="M71,83.855 L65,83.855 L65,78.864 C77.372,71.148 85.048,57.424 85.048,42.68 C85.048,19.216 66.188,0.144 43,0.144 C19.812,0.144 0.952,19.268 0.952,42.732 C0.952,57.448 8.632,71.309 21,79.032 L21,83.851 L15,83.851 C13.896,83.851 13,84.751 13,85.851 L13,93.851 C13,94.955 13.896,95.851 15,95.851 L71,95.851 C72.1,95.851 73,94.955 73,93.851 L73,85.851 C73,84.752 72.1,83.855 71,83.855 Z M21.764,64.372 L31.176,55.855 L27.48,55.855 C26.7,55.855 25.988,55.4 25.66,54.687 C25.332,53.98 25.452,53.14 25.964,52.551 L33.46,43.855 L32.604,43.855 C31.888,43.855 31.228,43.475 30.872,42.855 C30.516,42.235 30.516,41.475 30.872,40.855 L41.264,22.855 C41.98,21.615 44.015,21.615 44.728,22.855 L54.88,40.44 C55.244,40.804 55.464,41.304 55.464,41.856 C55.464,42.972 54.532,43.888 53.424,43.856 C53.416,43.856 53.401,43.856 53.384,43.856 L52.532,43.856 L59.736,52.22 C60.252,52.58 60.588,53.184 60.588,53.856 C60.588,54.968 59.641,55.86 58.548,55.856 C58.54,55.856 58.524,55.856 58.508,55.856 L54.813,55.856 L64.229,64.373 C64.836,64.933 65.052,65.806 64.752,66.577 C64.452,67.348 63.712,67.852 62.884,67.852 L45,67.852 L45,75.852 L41,75.852 L41,67.852 L23.108,67.852 C22.28,67.852 21.54,67.344 21.24,66.577 C20.944,65.805 21.152,64.928 21.764,64.372 Z" id="Shape"></path>
            <path d="M48.288,55.34 C47.676,54.78 47.46,53.908 47.764,53.136 C48.061,52.368 48.805,51.86 49.632,51.86 L54.149,51.86 L46.657,43.169 C46.149,42.577 46.024,41.741 46.352,41.029 C46.68,40.321 47.384,39.861 48.172,39.861 L49.924,39.861 L42.996,27.861 L36.068,39.861 L37.824,39.861 C38.604,39.861 39.316,40.321 39.644,41.029 C39.972,41.741 39.852,42.577 39.34,43.169 L31.844,51.86 L36.364,51.86 C37.192,51.86 37.932,52.369 38.232,53.136 C38.528,53.905 38.32,54.784 37.708,55.34 L28.296,63.856 L57.704,63.856 L48.288,55.34 Z" id="Path"></path>
        </g>
    </g>
</svg>