<?xml version="1.0" encoding="UTF-8"?>
<svg width="99px" height="100px" viewBox="0 0 99 100" version="1.1" xmlns="http://www.w3.org/2000/svg" xmlns:xlink="http://www.w3.org/1999/xlink">
    <!-- Generator: Sketch 53.1 (72631) - https://sketchapp.com -->
    <title>infoicon</title>
    <desc>Created with Sketch.</desc>
    <g id="Page-1" stroke="none" stroke-width="1" fill="none" fill-rule="evenodd">
        <g id="infoicon" transform="translate(-1.000000, 0.000000)" fill="#000000" fill-rule="nonzero">
            <g id="Group">
                <circle id="Oval" cx="50.5569444" cy="29.5583333" r="4.86944444"></circle>
                <g>
                    <path d="M50.5569444,5.33611111 C75.0416667,5.33611111 94.9625,25.2569444 94.9625,49.7416667 C94.9625,74.2263889 75.0416667,94.1472222 50.5569444,94.1472222 C26.0722222,94.1472222 6.15,74.2277778 6.15,49.7416667 C6.15,25.2555556 26.0708333,5.33611111 50.5569444,5.33611111 L50.5569444,5.33611111 Z M50.5569444,0.402777778 C23.3069444,0.402777778 1.21666667,22.4930556 1.21666667,49.7430556 C1.21666667,76.9930556 23.3069444,99.0833333 50.5569444,99.0833333 C77.8069444,99.0833333 99.8972222,76.9930556 99.8972222,49.7430556 C99.8972222,22.4930556 77.8055556,0.402777778 50.5569444,0.402777778 L50.5569444,0.402777778 Z" id="Shape"></path>
                    <rect id="Rectangle" x="47.1027778" y="41.0680556" width="6.90694444" height="33.7277778"></rect>
                </g>
            </g>
        </g>
    </g>
</svg>