<?xml version="1.0" encoding="UTF-8"?>
<svg width="500px" height="115px" viewBox="0 0 500 115" version="1.1" xmlns="http://www.w3.org/2000/svg" xmlns:xlink="http://www.w3.org/1999/xlink">
    <!-- Generator: Sketch 52.6 (67491) - http://www.bohemiancoding.com/sketch -->
    <title>Logo</title>
    <desc>Created with Sketch.</desc>
    <g id="Logo" stroke="none" stroke-width="1" fill="none" fill-rule="evenodd">
        <g id="Group-2" transform="translate(22.000000, 3.000000)">
            <text id="SpikeForest" font-family="Alegreya-ExtraBold, Alegreya ExtraBold" font-size="80" font-weight="600" fill="#384CA2">
                <tspan x="56.4" y="81">SpikeForest</tspan>
            </text>
            <g id="Group" transform="translate(0.000000, 24.000000)">
                <path d="M23.5,0 C28.0356989,7.55971257 31.5677084,13.1035132 34.0960286,16.6314019 C36.6243489,20.1592906 40.259006,24.61549 45,30 L2,30 C7.27725338,24.1291819 11.1455593,19.4779413 13.6049179,16.0462782 C16.0642764,12.6146151 19.3626371,7.26585573 23.5,0 Z" id="Triangle-Copy-5" fill="#F6CF3F"></path>
                <path d="M24,7 C28.278277,14.335681 31.6523981,19.7437243 34.1223633,23.2241298 C36.5923285,26.7045353 40.5515407,31.6298254 46,38 L2,38 C7.58203821,31.2595635 11.6479562,26.0928968 14.1977539,22.5 C16.7475516,18.9071032 20.014967,13.7404365 24,7 Z" id="Triangle-Copy-2" fill="#807F83"></path>
                <path d="M29.5640906,46.156454 C29.5606553,46.4665863 29.5611802,46.7699583 29.5656653,47.06657 C29.6061401,49.7432743 29.9971219,53.7210843 30.7386106,59 C28.5677188,58.6198552 26.1740479,58.4297828 23.557598,58.4297828 C20.9411482,58.4297828 18.5572453,58.6198552 16.4058895,59 C16.8217878,53.6962216 17.0479888,49.7184116 17.0844925,47.06657 C17.0886052,46.7678029 17.0906422,46.4617322 17.0906036,46.1483577 C12.4702261,46.2881092 6.77335829,46.569181 0,46.991573 C4.11646706,42.1465802 7.67937775,37.6116724 10.6887321,33.3868498 C13.6980864,29.1620271 17.968509,22.6997438 23.5,14 C28.7489502,23.4047922 32.9636899,30.3397555 36.144219,34.80489 C39.3247481,39.2700244 42.9433418,43.3322521 47,46.991573 C40.0527431,46.5771845 34.2407733,46.2988115 29.5640906,46.156454 Z" id="Triangle-Copy-4" fill="#384CA2"></path>
            </g>
        </g>
    </g>
</svg>